<?xml version="1.0" encoding="UTF-8"?>
<svg xmlns="http://www.w3.org/2000/svg" viewBox="0 0 128 128" role="img" aria-label="Enigma2 Player icon">
  <defs>
    <linearGradient id="app-bg" x1="15" y1="12" x2="113" y2="119" gradientUnits="userSpaceOnUse">
      <stop offset="0" stop-color="#19212c"/>
      <stop offset="0.56" stop-color="#090d12"/>
      <stop offset="1" stop-color="#030405"/>
    </linearGradient>
    <linearGradient id="screen-fill" x1="28" y1="42" x2="98" y2="88" gradientUnits="userSpaceOnUse">
      <stop offset="0" stop-color="#182437"/>
      <stop offset="1" stop-color="#080b0f"/>
    </linearGradient>
    <linearGradient id="bezel" x1="22" y1="36" x2="108" y2="94" gradientUnits="userSpaceOnUse">
      <stop offset="0" stop-color="#f6f8fb"/>
      <stop offset="0.48" stop-color="#8f9aa7"/>
      <stop offset="1" stop-color="#353d46"/>
    </linearGradient>
    <linearGradient id="orange" x1="76" y1="52" x2="104" y2="77" gradientUnits="userSpaceOnUse">
      <stop offset="0" stop-color="#ff9440"/>
      <stop offset="1" stop-color="#f05a28"/>
    </linearGradient>
  </defs>

  <rect x="4" y="4" width="120" height="120" rx="25" fill="url(#app-bg)"/>
  <rect x="5.5" y="5.5" width="117" height="117" rx="23.5" fill="none" stroke="#ffffff" stroke-opacity="0.06"/>

  <ellipse cx="64" cy="105" rx="38" ry="8" fill="#000000" opacity="0.34"/>
  <path d="M56 39L43 24" fill="none" stroke="#000000" stroke-opacity="0.38" stroke-width="5" stroke-linecap="round"/>
  <path d="M72 39L85 24" fill="none" stroke="#000000" stroke-opacity="0.38" stroke-width="5" stroke-linecap="round"/>
  <rect x="18" y="41" width="92" height="57" rx="11" fill="#000000" opacity="0.42"/>

  <path d="M55 37L42 22" fill="none" stroke="#eef3f8" stroke-width="3" stroke-linecap="round"/>
  <path d="M73 37L86 22" fill="none" stroke="#eef3f8" stroke-width="3" stroke-linecap="round"/>
  <circle cx="42" cy="22" r="2.6" fill="#eef3f8"/>
  <circle cx="86" cy="22" r="2.6" fill="#eef3f8"/>

  <rect x="19" y="37" width="90" height="56" rx="10" fill="url(#bezel)"/>
  <rect x="22" y="40" width="84" height="50" rx="8" fill="#151a20"/>
  <rect x="23" y="41" width="82" height="47" rx="7" fill="url(#screen-fill)"/>
  <rect x="27" y="45" width="74" height="39" rx="4" fill="#0c1119" stroke="#ffffff" stroke-opacity="0.07"/>

  <rect x="35" y="55" width="7" height="4" rx="1" fill="#000000" opacity="0.28"/>
  <rect x="46" y="55" width="28" height="4" rx="1.6" fill="#000000" opacity="0.28"/>
  <rect x="35" y="64" width="7" height="4" rx="1" fill="#000000" opacity="0.28"/>
  <rect x="46" y="64" width="26" height="4" rx="1.6" fill="#000000" opacity="0.28"/>
  <rect x="35" y="73" width="7" height="4" rx="1" fill="#000000" opacity="0.28"/>
  <rect x="46" y="73" width="30" height="4" rx="1.6" fill="#000000" opacity="0.28"/>

  <rect x="34" y="53" width="7" height="4" rx="1" fill="#3658ad"/>
  <rect x="45" y="53" width="28" height="4" rx="1.6" fill="#5d80d6"/>
  <rect x="34" y="62" width="7" height="4" rx="1" fill="#3658ad"/>
  <rect x="45" y="62" width="26" height="4" rx="1.6" fill="#f05a28"/>
  <rect x="34" y="71" width="7" height="4" rx="1" fill="#3658ad"/>
  <rect x="45" y="71" width="30" height="4" rx="1.6" fill="#5d80d6"/>

  <path d="M81.5 56.5c0-1.82 1.96-2.96 3.54-2.05l17.48 10.1c1.58 0.91 1.58 3.19 0 4.1l-17.48 10.1c-1.58 0.91-3.54-0.23-3.54-2.05z" fill="#000000" opacity="0.36"/>
  <path d="M79.5 54.5c0-1.82 1.96-2.96 3.54-2.05l17.48 10.1c1.58 0.91 1.58 3.19 0 4.1l-17.48 10.1c-1.58 0.91-3.54-0.23-3.54-2.05z" fill="url(#orange)"/>
  <path d="M81.7 55.7l16.1 9.3" fill="none" stroke="#ffbd7a" stroke-opacity="0.34" stroke-width="1.15" stroke-linecap="round"/>

  <rect x="38" y="97" width="52" height="5" rx="2.5" fill="#d9e0e7" opacity="0.82"/>
  <path d="M54 93h20l3 4H51z" fill="#7f8994" opacity="0.82"/>
</svg>
