<?xml version="1.0" encoding="UTF-8"?>
<svg xmlns="http://www.w3.org/2000/svg" viewBox="0 0 128 128" role="img" aria-label="Enigma2 Player icon">
  <defs>
    <linearGradient id="screen-fill" x1="28" y1="42" x2="98" y2="88" gradientUnits="userSpaceOnUse">
      <stop offset="0" stop-color="#182437"/>
      <stop offset="1" stop-color="#080b0f"/>
    </linearGradient>
    <linearGradient id="orange" x1="76" y1="52" x2="104" y2="77" gradientUnits="userSpaceOnUse">
      <stop offset="0" stop-color="#ff9440"/>
      <stop offset="1" stop-color="#f05a28"/>
    </linearGradient>
  </defs>

  <g transform="translate(64 64) scale(1.18) translate(-64 -64)">
    <path d="M55 37L42 22" fill="none" stroke="#eef3f8" stroke-width="3" stroke-linecap="round"/>
    <path d="M73 37L86 22" fill="none" stroke="#eef3f8" stroke-width="3" stroke-linecap="round"/>
    <circle cx="42" cy="22" r="2.6" fill="#eef3f8"/>
    <circle cx="86" cy="22" r="2.6" fill="#eef3f8"/>

    <rect x="19" y="37" width="90" height="56" rx="10" fill="#8f9aa7"/>
    <rect x="22" y="40" width="84" height="50" rx="8" fill="url(#screen-fill)"/>

    <rect x="30" y="53" width="7" height="4" rx="1" fill="#3658ad"/>
    <rect x="41" y="53" width="31" height="4" rx="1.6" fill="#5d80d6"/>
    <rect x="30" y="62" width="7" height="4" rx="1" fill="#3658ad"/>
    <rect x="41" y="62" width="31" height="4" rx="1.6" fill="#f05a28"/>
    <rect x="30" y="71" width="7" height="4" rx="1" fill="#3658ad"/>
    <rect x="41" y="71" width="31" height="4" rx="1.6" fill="#5d80d6"/>

    <path d="M79.5 54.5c0-1.82 1.96-2.96 3.54-2.05l17.48 10.1c1.58 0.91 1.58 3.19 0 4.1l-17.48 10.1c-1.58 0.91-3.54-0.23-3.54-2.05z" fill="url(#orange)"/>
    <path d="M81.7 55.7l16.1 9.3" fill="none" stroke="#ffbd7a" stroke-opacity="0.34" stroke-width="1.15" stroke-linecap="round"/>

    <rect x="38" y="97" width="52" height="5" rx="2.5" fill="#d9e0e7" opacity="0.82"/>
    <path d="M54 93h20l3 4H51z" fill="#7f8994" opacity="0.82"/>
  </g>
</svg>
